# xmcd CD database file
#
# Track frame offsets:
#	182
#	17432
#	40315
#	61277
#	82197
#	99422
#	121467
#	145947
#	162760
#	186322
#	198645
#	220195
#	232237
#	246157
#	271822
#	290012
#
# Disc length: 4195 seconds
#
# Revision: 0
# Processed by: cddbd v1.4PL0 Copyright (c) Steve Scherf et al.
# Submitted via: CDex 1.50
#
DISCID=f0106110
DTITLE=John Lee Hooker - Get back home
DYEAR=1969
DGENRE=Blues
TTITLE0=Get back home in the USA
TTITLE1=T.B. is killing me
TTITLE2=Cold chills
TTITLE3=I had a dream last night
TTITLE4=Love affair
TTITLE5=Little rain
TTITLE6=When my first wife left me
TTITLE7=Big boss lady
TTITLE8=Back to your mother
TTITLE9=Boogie chillen
TTITLE10=Sittin' here thinkin'
TTITLE11=I wanna' ramble
TTITLE12=Hi feel sneakers
TTITLE13=I'm so worried baby
TTITLE14=I'm going upstairs
TTITLE15=Crazy 'bout you
EXTD=YEAR: 1969
EXTT0=
EXTT1=
EXTT2=
EXTT3=
EXTT4=
EXTT5=
EXTT6=
EXTT7=
EXTT8=
EXTT9=
EXTT10=
EXTT11=
EXTT12=
EXTT13=
EXTT14=
EXTT15=
PLAYORDER=
